<svg width="297" height="306" viewBox="0 0 297 306" fill="none" xmlns="http://www.w3.org/2000/svg">
<rect x="1" y="18" width="282" height="285" fill="#302D2D"/>
<path d="M18.525 149.65C16.315 149.65 14.2567 149.26 12.35 148.48C10.4433 147.657 8.75333 146.4 7.28 144.71C5.85 143.02 4.72333 140.875 3.9 138.275C3.07667 135.675 2.665 132.577 2.665 128.98C2.665 125.817 2.96833 123.065 3.575 120.725C4.18167 118.342 5.005 116.348 6.045 114.745C7.085 113.142 8.27667 111.863 9.62 110.91C10.9633 109.957 12.3717 109.263 13.845 108.83C15.3183 108.397 16.7917 108.18 18.265 108.18C21.2117 108.18 23.725 108.917 25.805 110.39C27.885 111.82 29.445 113.748 30.485 116.175L26.585 117.995L26 118.255L25.805 117.8C25.935 117.453 25.935 117.15 25.805 116.89C25.675 116.587 25.4367 116.132 25.09 115.525C24.0067 114.052 22.88 113.077 21.71 112.6C20.5833 112.08 19.3917 111.82 18.135 111.82C16.445 111.82 14.9067 112.21 13.52 112.99C12.1767 113.727 11.0067 114.832 10.01 116.305C9.05667 117.735 8.32 119.49 7.8 121.57C7.32333 123.65 7.085 126.012 7.085 128.655C7.085 131.212 7.36667 133.53 7.93 135.61C8.53667 137.69 9.33833 139.488 10.335 141.005C11.375 142.522 12.5667 143.692 13.91 144.515C15.2967 145.338 16.77 145.75 18.33 145.75C19.4133 145.75 20.4533 145.555 21.45 145.165C22.49 144.775 23.4433 144.212 24.31 143.475C25.1767 142.695 25.9133 141.807 26.52 140.81L29.9 143.02C28.6 145.187 27.04 146.833 25.22 147.96C23.4 149.087 21.1683 149.65 18.525 149.65ZM46.345 105.775H50.83H51.48V106.23C51.22 106.49 51.0467 106.772 50.96 107.075C50.9167 107.378 50.895 107.898 50.895 108.635V124.56C51.675 123.347 52.585 122.307 53.625 121.44C54.7083 120.53 55.835 119.837 57.005 119.36C58.2183 118.84 59.4317 118.58 60.645 118.58C62.4217 118.58 63.9817 118.992 65.325 119.815C66.7117 120.638 67.7733 121.96 68.51 123.78C69.29 125.6 69.68 128.005 69.68 130.995V149H65.13V131.125C65.13 129.045 64.8917 127.398 64.415 126.185C63.9383 124.928 63.2883 124.04 62.465 123.52C61.6417 122.957 60.71 122.675 59.67 122.675C58.89 122.675 58.0883 122.805 57.265 123.065C56.4417 123.325 55.64 123.715 54.86 124.235C54.1233 124.755 53.4517 125.405 52.845 126.185C52.2383 126.922 51.7617 127.767 51.415 128.72C51.0683 129.673 50.895 130.735 50.895 131.905V149H46.345V105.775ZM96.915 149.715C93.535 149.715 90.935 148.957 89.115 147.44C87.295 145.88 86.385 143.908 86.385 141.525C86.385 139.922 86.775 138.492 87.555 137.235C88.335 135.935 89.3967 134.852 90.74 133.985C92.1267 133.075 93.73 132.382 95.55 131.905C97.37 131.428 99.2983 131.19 101.335 131.19C102.072 131.19 102.808 131.212 103.545 131.255C104.325 131.255 105.127 131.298 105.95 131.385C106.817 131.428 107.705 131.515 108.615 131.645L108.745 135.22C107.965 135.09 107.163 135.003 106.34 134.96C105.56 134.873 104.78 134.808 104 134.765C103.22 134.722 102.462 134.7 101.725 134.7C100.165 134.7 98.735 134.83 97.435 135.09C96.135 135.35 95.0083 135.74 94.055 136.26C93.1017 136.78 92.365 137.452 91.845 138.275C91.325 139.098 91.065 140.095 91.065 141.265C91.065 142.175 91.2167 142.955 91.52 143.605C91.8667 144.212 92.3217 144.71 92.885 145.1C93.4483 145.447 94.0983 145.707 94.835 145.88C95.615 146.053 96.46 146.14 97.37 146.14C99.06 146.14 100.555 145.88 101.855 145.36C103.198 144.797 104.325 143.995 105.235 142.955C106.188 141.915 106.903 140.637 107.38 139.12C107.857 137.603 108.095 135.87 108.095 133.92C108.095 130.973 107.748 128.677 107.055 127.03C106.362 125.383 105.322 124.213 103.935 123.52C102.592 122.827 100.858 122.48 98.735 122.48C97.305 122.48 95.8967 122.762 94.51 123.325C93.1233 123.845 91.8667 124.668 90.74 125.795L88.465 122.805C89.8517 121.418 91.455 120.378 93.275 119.685C95.095 118.992 97.0233 118.645 99.06 118.645C101.01 118.645 102.787 118.883 104.39 119.36C105.993 119.837 107.358 120.638 108.485 121.765C109.655 122.848 110.543 124.322 111.15 126.185C111.8 128.048 112.125 130.388 112.125 133.205V149H107.055V144.45C106.492 145.533 105.798 146.422 104.975 147.115C104.195 147.808 103.35 148.35 102.44 148.74C101.53 149.087 100.598 149.325 99.645 149.455C98.6917 149.628 97.7817 149.715 96.915 149.715ZM132.535 119.295H137.41L137.215 127.94L136.63 126.965C136.89 125.622 137.345 124.43 137.995 123.39C138.645 122.35 139.425 121.483 140.335 120.79C141.245 120.053 142.242 119.512 143.325 119.165C144.408 118.775 145.535 118.58 146.705 118.58C148.265 118.58 149.695 118.862 150.995 119.425C152.338 119.945 153.53 120.747 154.57 121.83L152.49 125.47L152.23 126.055L151.775 125.795C151.688 125.448 151.558 125.123 151.385 124.82C151.212 124.517 150.843 124.148 150.28 123.715C149.587 123.282 148.937 123 148.33 122.87C147.767 122.697 147.117 122.61 146.38 122.61C145.297 122.61 144.213 122.827 143.13 123.26C142.047 123.65 141.05 124.278 140.14 125.145C139.273 126.012 138.58 127.117 138.06 128.46C137.54 129.803 137.28 131.407 137.28 133.27V149.065H132.535V119.295ZM171.535 149V145.23H180.31V109.545H171.925V105.775H185.055V145.23H193.765V149H171.535ZM225.68 149.65C223.513 149.65 221.542 149.325 219.765 148.675C217.988 147.982 216.45 146.985 215.15 145.685C213.893 144.385 212.918 142.782 212.225 140.875C211.532 138.925 211.185 136.715 211.185 134.245C211.185 131.732 211.532 129.5 212.225 127.55C212.962 125.6 213.937 123.975 215.15 122.675C216.407 121.332 217.858 120.313 219.505 119.62C221.195 118.927 222.972 118.58 224.835 118.58C226.525 118.58 228.107 118.862 229.58 119.425C231.053 119.988 232.332 120.855 233.415 122.025C234.498 123.152 235.343 124.603 235.95 126.38C236.6 128.157 236.925 130.258 236.925 132.685C236.925 133.032 236.903 133.4 236.86 133.79C236.86 134.137 236.838 134.483 236.795 134.83H215.67C215.757 136.737 216.082 138.405 216.645 139.835C217.208 141.222 217.945 142.37 218.855 143.28C219.765 144.147 220.805 144.797 221.975 145.23C223.188 145.663 224.467 145.88 225.81 145.88C226.85 145.88 227.825 145.772 228.735 145.555C229.645 145.295 230.49 144.927 231.27 144.45C232.093 143.93 232.83 143.302 233.48 142.565L236.08 145.1C235.257 146.097 234.303 146.942 233.22 147.635C232.18 148.328 231.032 148.827 229.775 149.13C228.518 149.477 227.153 149.65 225.68 149.65ZM215.865 131.19H232.18C232.18 129.803 231.985 128.568 231.595 127.485C231.248 126.358 230.728 125.405 230.035 124.625C229.385 123.802 228.583 123.195 227.63 122.805C226.72 122.372 225.68 122.155 224.51 122.155C223.47 122.155 222.473 122.328 221.52 122.675C220.61 123.022 219.765 123.585 218.985 124.365C218.205 125.102 217.533 126.033 216.97 127.16C216.45 128.287 216.082 129.63 215.865 131.19ZM265.915 149.65C264.268 149.65 262.687 149.477 261.17 149.13C259.697 148.783 258.288 148.263 256.945 147.57C255.645 146.877 254.432 146.01 253.305 144.97L255.905 140.55L256.295 139.965L256.685 140.225C256.772 140.572 256.858 140.94 256.945 141.33C257.075 141.677 257.378 142.11 257.855 142.63C258.765 143.54 259.848 144.298 261.105 144.905C262.405 145.468 264.052 145.75 266.045 145.75C267.648 145.75 268.992 145.555 270.075 145.165C271.202 144.775 272.068 144.233 272.675 143.54C273.282 142.803 273.585 141.958 273.585 141.005C273.585 140.355 273.455 139.792 273.195 139.315C272.935 138.795 272.502 138.318 271.895 137.885C271.332 137.452 270.573 137.018 269.62 136.585C268.667 136.152 267.497 135.718 266.11 135.285C263.857 134.635 261.885 133.877 260.195 133.01C258.505 132.143 257.205 131.147 256.295 130.02C255.385 128.85 254.93 127.528 254.93 126.055C254.93 124.538 255.342 123.238 256.165 122.155C256.988 121.028 258.202 120.162 259.805 119.555C261.452 118.905 263.467 118.58 265.85 118.58C267.237 118.58 268.493 118.688 269.62 118.905C270.747 119.078 271.787 119.36 272.74 119.75C273.693 120.14 274.56 120.638 275.34 121.245C276.163 121.808 276.943 122.48 277.68 123.26L275.015 126.51L274.56 127.03L274.235 126.705C274.192 126.358 274.083 126.033 273.91 125.73C273.78 125.383 273.477 124.972 273 124.495C272.003 123.715 270.877 123.13 269.62 122.74C268.363 122.307 267.15 122.09 265.98 122.09C264.247 122.09 262.752 122.393 261.495 123C260.238 123.607 259.61 124.538 259.61 125.795C259.61 126.445 259.827 127.095 260.26 127.745C260.737 128.352 261.582 128.98 262.795 129.63C264.008 130.237 265.742 130.865 267.995 131.515C270.465 132.295 272.437 133.097 273.91 133.92C275.427 134.7 276.51 135.61 277.16 136.65C277.853 137.69 278.2 138.925 278.2 140.355C278.2 142.002 277.745 143.54 276.835 144.97C275.968 146.4 274.625 147.548 272.805 148.415C270.985 149.238 268.688 149.65 265.915 149.65Z" fill="white"/>
<path d="M10 23.7H17.2H18.2V24.4C17.8 24.8 17.5333 25.2333 17.4 25.7C17.3333 26.1667 17.3 26.9667 17.3 28.1V50.3H41.7V23.7H48.9H49.9V24.4C49.5 24.8 49.2333 25.2333 49.1 25.7C49.0333 26.1667 49 26.9667 49 28.1V86H41.6V56.3H17.3V86H10V23.7ZM102.1 87.1C100.3 87.1 98.6 86.8333 97 86.3C95.4 85.7667 93.9333 84.9667 92.6 83.9C91.3333 82.7667 90.2333 81.3667 89.3 79.7C88.3667 78.0333 87.6333 76.0333 87.1 73.7C86.6333 71.3667 86.4 68.7333 86.4 65.8L86.5 40.3H93.5V65.8C93.5 68.6667 93.7667 71.1 94.3 73.1C94.8333 75.1 95.5667 76.7 96.5 77.9C97.5 79.1 98.6333 79.9667 99.9 80.5C101.167 81.0333 102.5 81.3 103.9 81.3C105.5 81.3 107.033 81 108.5 80.4C109.967 79.7333 111.267 78.7667 112.4 77.5C113.6 76.2333 114.533 74.6 115.2 72.6C115.867 70.6 116.2 68.2333 116.2 65.5V40.3H123.2V78.9C123.2 80.1 123.233 81.3 123.3 82.5C123.433 83.6333 123.733 84.8 124.2 86H117.3C116.967 85.2 116.733 84.4333 116.6 83.7C116.467 82.9 116.367 82.1 116.3 81.3C116.3 80.5 116.3 79.7333 116.3 79C115.567 80.2667 114.7 81.4 113.7 82.4C112.7 83.4 111.567 84.2667 110.3 85C109.1 85.6667 107.8 86.1667 106.4 86.5C105.067 86.9 103.633 87.1 102.1 87.1ZM179.7 103.2C176.5 103.2 173.6 102.933 171 102.4C168.467 101.933 166.267 101.2 164.4 100.2C162.6 99.2667 161.2 98.0667 160.2 96.6C159.267 95.1333 158.8 93.4 158.8 91.4C158.8 89.5333 159.2 87.8667 160 86.4C160.8 84.9333 161.833 83.7333 163.1 82.8C164.433 81.8 165.867 81.0667 167.4 80.6L170.4 82.4C169.2 83.1333 168.233 83.8667 167.5 84.6C166.767 85.3333 166.233 86.1667 165.9 87.1C165.567 88.1 165.4 89.2667 165.4 90.6C165.4 91.7333 165.733 92.7333 166.4 93.6C167.067 94.5333 168 95.3 169.2 95.9C170.467 96.5 171.967 96.9667 173.7 97.3C175.5 97.6333 177.533 97.8 179.8 97.8C182.867 97.8 185.333 97.4667 187.2 96.8C189.133 96.2 190.567 95.3333 191.5 94.2C192.433 93.1333 192.9 91.9 192.9 90.5C192.9 89.0333 192.633 87.8333 192.1 86.9C191.567 85.9667 190.467 85.2667 188.8 84.8C187.133 84.3333 184.6 84.1 181.2 84.1C178.867 84.1 176.733 84 174.8 83.8C172.867 83.6 171.133 83.2667 169.6 82.8C168.067 82.3333 166.767 81.7667 165.7 81.1C164.7 80.3667 163.933 79.5 163.4 78.5C162.867 77.5 162.6 76.3333 162.6 75C162.6 73.2667 163.067 71.6 164 70C165 68.4 166.333 66.8667 168 65.4L171.4 68.1C170.733 68.8333 170.2 69.5 169.8 70.1C169.4 70.6333 169.1 71.1667 168.9 71.7C168.767 72.1667 168.7 72.7 168.7 73.3C168.7 74.3667 169.1 75.2333 169.9 75.9C170.767 76.5667 172.233 77.0667 174.3 77.4C176.367 77.6667 179.167 77.8 182.7 77.8C186.233 77.8 189.1 78.1 191.3 78.7C193.5 79.2333 195.167 80.0333 196.3 81.1C197.5 82.1667 198.333 83.4 198.8 84.8C199.267 86.2 199.5 87.7333 199.5 89.4C199.5 91.2 199.133 92.9 198.4 94.5C197.733 96.1667 196.633 97.6333 195.1 98.9C193.567 100.233 191.533 101.267 189 102C186.467 102.8 183.367 103.2 179.7 103.2ZM177.6 70.5C174.333 70.5 171.5 69.8 169.1 68.4C166.7 66.9333 164.833 65 163.5 62.6C162.233 60.1333 161.6 57.4333 161.6 54.5C161.6 51.5667 162.233 48.9 163.5 46.5C164.833 44.1 166.7 42.2 169.1 40.8C171.5 39.3333 174.333 38.6 177.6 38.6C180.933 38.6 183.767 39.3333 186.1 40.8C188.5 42.2 190.333 44.1 191.6 46.5C192.933 48.9 193.6 51.5667 193.6 54.5C193.6 57.4333 192.933 60.1333 191.6 62.6C190.333 65 188.5 66.9333 186.1 68.4C183.767 69.8 180.933 70.5 177.6 70.5ZM177.6 64.5C179.533 64.5 181.233 64.0667 182.7 63.2C184.233 62.2667 185.433 61.0333 186.3 59.5C187.167 57.9667 187.6 56.3 187.6 54.5C187.6 52.6333 187.167 50.9667 186.3 49.5C185.433 47.9667 184.233 46.7667 182.7 45.9C181.233 44.9667 179.533 44.5 177.6 44.5C175.667 44.5 173.933 44.9667 172.4 45.9C170.933 46.7667 169.767 47.9667 168.9 49.5C168.033 50.9667 167.6 52.6333 167.6 54.5C167.6 56.3 168.033 57.9667 168.9 59.5C169.767 61.0333 170.933 62.2667 172.4 63.2C173.933 64.0667 175.667 64.5 177.6 64.5ZM190.9 47.7L188.1 44.4C190.033 42.4667 192.033 41.0667 194.1 40.2C196.233 39.2667 198.733 38.9 201.6 39.1L202.5 45C200.3 44.8 198.233 44.8667 196.3 45.2C194.367 45.5333 192.567 46.3667 190.9 47.7ZM255 86.8C250.867 86.8 247.2 85.8 244 83.8C240.867 81.7333 238.4 78.9333 236.6 75.4C234.8 71.8 233.9 67.7 233.9 63.1C233.9 58.4333 234.8 54.3333 236.6 50.8C238.4 47.2 240.867 44.4 244 42.4C247.2 40.3333 250.867 39.3 255 39.3C259.133 39.3 262.767 40.3333 265.9 42.4C269.1 44.4 271.6 47.2 273.4 50.8C275.2 54.3333 276.1 58.4333 276.1 63.1C276.1 67.7 275.2 71.8 273.4 75.4C271.6 78.9333 269.1 81.7333 265.9 83.8C262.767 85.8 259.133 86.8 255 86.8ZM255 80.8C257.667 80.8 260 80.0333 262 78.5C264 76.9667 265.567 74.8667 266.7 72.2C267.9 69.5333 268.5 66.4667 268.5 63C268.5 59.5333 267.9 56.4667 266.7 53.8C265.567 51.1333 264 49.0667 262 47.6C260 46.0667 257.667 45.3 255 45.3C252.4 45.3 250.067 46.0667 248 47.6C246 49.0667 244.4 51.1333 243.2 53.8C242.067 56.4667 241.5 59.5333 241.5 63C241.5 66.4667 242.067 69.5333 243.2 72.2C244.4 74.8667 246 76.9667 248 78.5C250.067 80.0333 252.4 80.8 255 80.8Z" fill="white"/>
<path d="M99.1023 237.375V303H82.3409V157.545H99.1023V210.955H100.523C103.08 205.32 106.915 200.846 112.028 197.531C117.189 194.17 124.055 192.489 132.625 192.489C140.059 192.489 146.569 193.98 152.156 196.963C157.743 199.899 162.076 204.42 165.153 210.528C168.278 216.589 169.841 224.307 169.841 233.682V303H153.08V234.818C153.08 226.153 150.83 219.454 146.332 214.719C141.882 209.937 135.703 207.545 127.795 207.545C122.303 207.545 117.379 208.705 113.023 211.026C108.714 213.346 105.305 216.731 102.795 221.182C100.333 225.633 99.1023 231.03 99.1023 237.375ZM244.823 305.273C234.596 305.273 225.789 302.858 218.403 298.028C211.016 293.199 205.335 286.546 201.357 278.071C197.38 269.596 195.391 259.913 195.391 249.023C195.391 237.943 197.427 228.166 201.499 219.69C205.619 211.168 211.348 204.515 218.687 199.733C226.073 194.903 234.691 192.489 244.539 192.489C252.21 192.489 259.122 193.909 265.278 196.75C271.433 199.591 276.476 203.568 280.406 208.682C284.335 213.795 286.774 219.761 287.721 226.58H270.96C269.681 221.608 266.84 217.205 262.437 213.369C258.081 209.487 252.21 207.545 244.823 207.545C238.289 207.545 232.56 209.25 227.636 212.659C222.759 216.021 218.947 220.779 216.201 226.935C213.502 233.043 212.153 240.216 212.153 248.455C212.153 256.883 213.478 264.222 216.13 270.472C218.829 276.722 222.617 281.575 227.494 285.031C232.418 288.488 238.194 290.216 244.823 290.216C249.179 290.216 253.133 289.458 256.684 287.943C260.235 286.428 263.242 284.25 265.704 281.409C268.166 278.568 269.918 275.159 270.96 271.182H287.721C286.774 277.621 284.43 283.421 280.69 288.582C276.996 293.696 272.096 297.768 265.988 300.798C259.927 303.781 252.872 305.273 244.823 305.273Z" fill="white"/>
<path d="M99.1023 303V305H101.102V303H99.1023ZM82.3409 303H80.3409V305H82.3409V303ZM82.3409 157.545V155.545H80.3409V157.545H82.3409ZM99.1023 157.545H101.102V155.545H99.1023V157.545ZM99.1023 210.955H97.1023V212.955H99.1023V210.955ZM100.523 210.955V212.955H101.811L102.344 211.781L100.523 210.955ZM112.028 197.531L113.116 199.21L113.12 199.207L112.028 197.531ZM152.156 196.963L151.214 198.727L151.226 198.734L152.156 196.963ZM165.153 210.528L163.367 211.428L163.372 211.437L163.376 211.445L165.153 210.528ZM169.841 303V305H171.841V303H169.841ZM153.08 303H151.08V305H153.08V303ZM146.332 214.719L144.868 216.081L144.875 216.089L144.882 216.096L146.332 214.719ZM113.023 211.026L112.083 209.26L112.075 209.265L113.023 211.026ZM102.795 221.182L101.053 220.2L101.049 220.207L101.045 220.214L102.795 221.182ZM97.1023 237.375V303H101.102V237.375H97.1023ZM99.1023 301H82.3409V305H99.1023V301ZM84.3409 303V157.545H80.3409V303H84.3409ZM82.3409 159.545H99.1023V155.545H82.3409V159.545ZM97.1023 157.545V210.955H101.102V157.545H97.1023ZM99.1023 212.955H100.523V208.955H99.1023V212.955ZM102.344 211.781C104.745 206.489 108.329 202.313 113.116 199.21L110.941 195.853C105.501 199.379 101.414 204.151 98.7015 210.128L102.344 211.781ZM113.12 199.207C117.852 196.125 124.296 194.489 132.625 194.489V190.489C123.813 190.489 116.526 192.214 110.937 195.855L113.12 199.207ZM132.625 194.489C139.787 194.489 145.964 195.924 151.214 198.727L153.098 195.199C147.175 192.036 140.33 190.489 132.625 190.489V194.489ZM151.226 198.734C156.413 201.459 160.461 205.66 163.367 211.428L166.939 209.628C163.691 203.181 159.074 198.339 153.087 195.193L151.226 198.734ZM163.376 211.445C166.31 217.136 167.841 224.512 167.841 233.682H171.841C171.841 224.101 170.246 216.042 166.931 209.612L163.376 211.445ZM167.841 233.682V303H171.841V233.682H167.841ZM169.841 301H153.08V305H169.841V301ZM155.08 303V234.818H151.08V303H155.08ZM155.08 234.818C155.08 225.813 152.737 218.556 147.782 213.341L144.882 216.096C148.924 220.351 151.08 226.494 151.08 234.818H155.08ZM147.796 213.356C142.889 208.084 136.132 205.545 127.795 205.545V209.545C135.273 209.545 140.874 211.79 144.868 216.081L147.796 213.356ZM127.795 205.545C122.013 205.545 116.76 206.769 112.083 209.26L113.963 212.791C117.998 210.642 122.593 209.545 127.795 209.545V205.545ZM112.075 209.265C107.418 211.772 103.74 215.435 101.053 220.2L104.538 222.164C106.87 218.027 110.01 214.919 113.971 212.787L112.075 209.265ZM101.045 220.214C98.3835 225.025 97.1023 230.774 97.1023 237.375H101.102C101.102 231.286 102.283 226.24 104.546 222.15L101.045 220.214ZM218.403 298.028L217.308 299.702L217.308 299.702L218.403 298.028ZM201.499 219.69L199.699 218.82L199.697 218.824L201.499 219.69ZM218.687 199.733L219.779 201.409L219.781 201.407L218.687 199.733ZM280.406 208.682L281.991 207.463L281.991 207.463L280.406 208.682ZM287.721 226.58V228.58H290.018L289.702 226.304L287.721 226.58ZM270.96 226.58L269.023 227.078L269.409 228.58H270.96V226.58ZM262.437 213.369L261.106 214.862L261.115 214.87L261.123 214.877L262.437 213.369ZM227.636 212.659L228.771 214.306L228.774 214.303L227.636 212.659ZM216.201 226.935L214.375 226.12L214.372 226.126L216.201 226.935ZM216.13 270.472L214.289 271.253L214.294 271.264L216.13 270.472ZM227.494 285.031L226.337 286.663L226.345 286.668L227.494 285.031ZM256.684 287.943L255.899 286.104L255.899 286.104L256.684 287.943ZM265.704 281.409L267.215 282.719L267.215 282.719L265.704 281.409ZM270.96 271.182V269.182H269.416L269.025 270.675L270.96 271.182ZM287.721 271.182L289.7 271.473L290.037 269.182H287.721V271.182ZM280.69 288.582L279.07 287.409L279.068 287.411L280.69 288.582ZM265.988 300.798L266.871 302.593L266.877 302.59L265.988 300.798ZM244.823 303.273C234.921 303.273 226.509 300.939 219.497 296.354L217.308 299.702C225.069 304.777 234.27 307.273 244.823 307.273V303.273ZM219.497 296.354C212.441 291.74 206.997 285.382 203.168 277.221L199.547 278.921C203.672 287.711 209.592 294.657 217.308 299.702L219.497 296.354ZM203.168 277.221C199.334 269.052 197.391 259.667 197.391 249.023H193.391C193.391 260.159 195.426 270.139 199.547 278.921L203.168 277.221ZM197.391 249.023C197.391 238.19 199.381 228.717 203.302 220.556L199.697 218.824C195.474 227.614 193.391 237.696 193.391 249.023H197.391ZM203.3 220.561C207.274 212.339 212.769 205.976 219.779 201.409L217.595 198.057C209.926 203.054 203.963 209.997 199.699 218.82L203.3 220.561ZM219.781 201.407C226.805 196.814 235.033 194.489 244.539 194.489V190.489C234.348 190.489 225.341 192.993 217.592 198.059L219.781 201.407ZM244.539 194.489C251.958 194.489 258.58 195.861 264.44 198.566L266.116 194.934C259.665 191.957 252.461 190.489 244.539 190.489V194.489ZM264.44 198.566C270.317 201.278 275.097 205.057 278.82 209.901L281.991 207.463C277.854 202.08 272.549 197.903 266.116 194.934L264.44 198.566ZM278.82 209.901C282.524 214.721 284.837 220.356 285.74 226.855L289.702 226.304C288.711 219.167 286.147 212.87 281.991 207.463L278.82 209.901ZM287.721 224.58H270.96V228.58H287.721V224.58ZM272.897 226.081C271.504 220.666 268.416 215.924 263.75 211.861L261.123 214.877C265.265 218.485 267.858 222.55 269.023 227.078L272.897 226.081ZM263.768 211.876C258.956 207.587 252.565 205.545 244.823 205.545V209.545C251.854 209.545 257.206 211.386 261.106 214.862L263.768 211.876ZM244.823 205.545C237.921 205.545 231.786 207.353 226.497 211.015L228.774 214.303C233.333 211.147 238.657 209.545 244.823 209.545V205.545ZM226.501 211.012C221.281 214.61 217.249 219.676 214.375 226.12L218.027 227.75C220.645 221.882 224.236 217.431 228.771 214.306L226.501 211.012ZM214.372 226.126C211.537 232.541 210.153 240.001 210.153 248.455H214.153C214.153 240.431 215.467 233.544 218.03 227.743L214.372 226.126ZM210.153 248.455C210.153 257.088 211.51 264.704 214.289 271.253L217.971 269.69C215.446 263.739 214.153 256.677 214.153 248.455H210.153ZM214.294 271.264C217.117 277.803 221.121 282.966 226.337 286.663L228.65 283.4C224.112 280.183 220.54 275.64 217.966 269.679L214.294 271.264ZM226.345 286.668C231.64 290.385 237.827 292.216 244.823 292.216V288.216C238.562 288.216 233.196 286.59 228.643 283.394L226.345 286.668ZM244.823 292.216C249.414 292.216 253.64 291.417 257.469 289.783L255.899 286.104C252.626 287.5 248.944 288.216 244.823 288.216V292.216ZM257.469 289.783C261.291 288.152 264.549 285.796 267.215 282.719L264.192 280.099C261.935 282.704 259.179 284.704 255.899 286.104L257.469 289.783ZM267.215 282.719C269.896 279.625 271.782 275.934 272.894 271.689L269.025 270.675C268.053 274.384 266.435 277.511 264.192 280.099L267.215 282.719ZM270.96 273.182H287.721V269.182H270.96V273.182ZM285.742 270.891C284.841 277.018 282.617 282.514 279.07 287.409L282.309 289.756C286.243 284.328 288.707 278.224 289.7 271.473L285.742 270.891ZM279.068 287.411C275.58 292.241 270.94 296.109 265.099 299.007L266.877 302.59C273.252 299.427 278.412 295.151 282.311 289.753L279.068 287.411ZM265.105 299.004C259.367 301.828 252.624 303.273 244.823 303.273V307.273C253.121 307.273 260.488 305.734 266.871 302.593L265.105 299.004Z" fill="white"/>
</svg>
